REM DIRINDEX 1\2,1\3
REM DIRNAME folder01,folder02,folder03
TITLE ""
FILE "2081-2100.mp3" MP3
  TRACK 01 AUDIO
    TITLE "0:"
    INDEX 01 00:00:00
  TRACK 02 AUDIO
    TITLE "2:cjc039_3161"
    INDEX 01 00:00:23
  TRACK 03 AUDIO
    TITLE "0:"
    INDEX 01 00:01:42
  TRACK 04 AUDIO
    TITLE "3:cjc039_3162"
    INDEX 01 00:02:22
  TRACK 05 AUDIO
    TITLE "0:"
    INDEX 01 00:06:61
  TRACK 06 AUDIO
    TITLE "2:cjc039_3163"
    INDEX 01 00:08:36
  TRACK 07 AUDIO
    TITLE "0:"
    INDEX 01 00:09:71
  TRACK 08 AUDIO
    TITLE "3:cjc039_3164"
    INDEX 01 00:10:43
  TRACK 09 AUDIO
    TITLE "0:"
    INDEX 01 00:13:65
  TRACK 10 AUDIO
    TITLE "2:cjc039_3165"
    INDEX 01 00:15:38
  TRACK 11 AUDIO
    TITLE "0:"
    INDEX 01 00:16:38
  TRACK 12 AUDIO
    TITLE "3:cjc039_3166"
    INDEX 01 00:17:14
  TRACK 13 AUDIO
    TITLE "0:"
    INDEX 01 00:20:16
  TRACK 14 AUDIO
    TITLE "2:cjc039_3167"
    INDEX 01 00:21:62
  TRACK 15 AUDIO
    TITLE "0:"
    INDEX 01 00:23:14
  TRACK 16 AUDIO
    TITLE "3:cjc039_3168"
    INDEX 01 00:23:63
  TRACK 17 AUDIO
    TITLE "0:"
    INDEX 01 00:28:19
  TRACK 18 AUDIO
    TITLE "2:cjc039_3169"
    INDEX 01 00:29:72
  TRACK 19 AUDIO
    TITLE "0:"
    INDEX 01 00:31:12
  TRACK 20 AUDIO
    TITLE "3:cjc039_3170"
    INDEX 01 00:31:57
  TRACK 21 AUDIO
    TITLE "0:"
    INDEX 01 00:35:45
  TRACK 22 AUDIO
    TITLE "2:cjc039_3171"
    INDEX 01 00:37:14
  TRACK 23 AUDIO
    TITLE "0:"
    INDEX 01 00:38:43
  TRACK 24 AUDIO
    TITLE "3:cjc039_3172"
    INDEX 01 00:39:19
  TRACK 25 AUDIO
    TITLE "0:"
    INDEX 01 00:43:39
  TRACK 26 AUDIO
    TITLE "2:cjc039_3173"
    INDEX 01 00:45:12
  TRACK 27 AUDIO
    TITLE "0:"
    INDEX 01 00:46:19
  TRACK 28 AUDIO
    TITLE "3:cjc039_3174"
    INDEX 01 00:46:72
  TRACK 29 AUDIO
    TITLE "0:"
    INDEX 01 00:51:34
  TRACK 30 AUDIO
    TITLE "2:cjc039_3175"
    INDEX 01 00:53:04
  TRACK 31 AUDIO
    TITLE "0:"
    INDEX 01 00:54:38
  TRACK 32 AUDIO
    TITLE "3:cjc039_3176"
    INDEX 01 00:55:10
  TRACK 33 AUDIO
    TITLE "0:"
    INDEX 01 00:59:63
  TRACK 34 AUDIO
    TITLE "2:cjc039_3177"
    INDEX 01 01:01:34
  TRACK 35 AUDIO
    TITLE "0:"
    INDEX 01 01:02:34
  TRACK 36 AUDIO
    TITLE "3:cjc039_3178"
    INDEX 01 01:03:06
  TRACK 37 AUDIO
    TITLE "0:"
    INDEX 01 01:07:04
  TRACK 38 AUDIO
    TITLE "2:cjc039_3179"
    INDEX 01 01:08:54
  TRACK 39 AUDIO
    TITLE "0:"
    INDEX 01 01:11:64
  TRACK 40 AUDIO
    TITLE "3:cjc039_3180"
    INDEX 01 01:12:30
  TRACK 41 AUDIO
    TITLE "0:"
    INDEX 01 01:16:61
  TRACK 42 AUDIO
    TITLE "2:cjc039_3181"
    INDEX 01 01:18:39
  TRACK 43 AUDIO
    TITLE "0:"
    INDEX 01 01:19:54
  TRACK 44 AUDIO
    TITLE "3:cjc039_3182"
    INDEX 01 01:20:30
  TRACK 45 AUDIO
    TITLE "0:"
    INDEX 01 01:23:62
  TRACK 46 AUDIO
    TITLE "2:cjc039_3183"
    INDEX 01 01:25:37
  TRACK 47 AUDIO
    TITLE "0:"
    INDEX 01 01:26:68
  TRACK 48 AUDIO
    TITLE "3:cjc039_3184"
    INDEX 01 01:27:42
  TRACK 49 AUDIO
    TITLE "0:"
    INDEX 01 01:31:51
  TRACK 50 AUDIO
    TITLE "2:cjc039_3185"
    INDEX 01 01:33:27
  TRACK 51 AUDIO
    TITLE "0:"
    INDEX 01 01:34:24
  TRACK 52 AUDIO
    TITLE "3:cjc039_3186"
    INDEX 01 01:34:73
  TRACK 53 AUDIO
    TITLE "0:"
    INDEX 01 01:37:68
  TRACK 54 AUDIO
    TITLE "2:cjc039_3187"
    INDEX 01 01:39:39
  TRACK 55 AUDIO
    TITLE "0:"
    INDEX 01 01:40:62
  TRACK 56 AUDIO
    TITLE "3:cjc039_3188"
    INDEX 01 01:41:32
  TRACK 57 AUDIO
    TITLE "0:"
    INDEX 01 01:45:28
  TRACK 58 AUDIO
    TITLE "2:cjc039_3189"
    INDEX 01 01:47:01
  TRACK 59 AUDIO
    TITLE "0:"
    INDEX 01 01:48:16
  TRACK 60 AUDIO
    TITLE "3:cjc039_3190"
    INDEX 01 01:48:69
  TRACK 61 AUDIO
    TITLE "0:"
    INDEX 01 01:52:36
  TRACK 62 AUDIO
    TITLE "2:cjc039_3191"
    INDEX 01 01:54:15
  TRACK 63 AUDIO
    TITLE "0:"
    INDEX 01 01:55:30
  TRACK 64 AUDIO
    TITLE "3:cjc039_3192"
    INDEX 01 01:56:08
  TRACK 65 AUDIO
    TITLE "0:"
    INDEX 01 02:00:12
  TRACK 66 AUDIO
    TITLE "2:cjc039_3193"
    INDEX 01 02:01:62
  TRACK 67 AUDIO
    TITLE "0:"
    INDEX 01 02:03:04
  TRACK 68 AUDIO
    TITLE "3:cjc039_3194"
    INDEX 01 02:03:55
  TRACK 69 AUDIO
    TITLE "0:"
    INDEX 01 02:07:53
  TRACK 70 AUDIO
    TITLE "2:cjc039_3195"
    INDEX 01 02:09:28
  TRACK 71 AUDIO
    TITLE "0:"
    INDEX 01 02:10:49
  TRACK 72 AUDIO
    TITLE "3:cjc039_3196"
    INDEX 01 02:11:23
  TRACK 73 AUDIO
    TITLE "0:"
    INDEX 01 02:15:09
  TRACK 74 AUDIO
    TITLE "2:cjc039_3197"
    INDEX 01 02:16:58
  TRACK 75 AUDIO
    TITLE "0:"
    INDEX 01 02:17:67
  TRACK 76 AUDIO
    TITLE "3:cjc039_3198"
    INDEX 01 02:18:43
  TRACK 77 AUDIO
    TITLE "0:"
    INDEX 01 02:22:06
  TRACK 78 AUDIO
    TITLE "2:cjc039_3199"
    INDEX 01 02:23:54
  TRACK 79 AUDIO
    TITLE "0:"
    INDEX 01 02:25:21
  TRACK 80 AUDIO
    TITLE "3:cjc039_3200"
    INDEX 01 02:25:72
  TRACK 81 AUDIO
    TITLE "0:"
    INDEX 01 02:29:49
